<svg xmlns="http://www.w3.org/2000/svg" viewBox="0 0 117.39 105.71"><defs><style>.cls-1{fill:#fff;}</style></defs><g id="Layer_2" data-name="Layer 2"><g id="Layer_2-2" data-name="Layer 2"><path class="cls-1" d="M24,105.71a24,24,0,1,1,24-24A24,24,0,0,1,24,105.71Zm0-44.24A20.24,20.24,0,1,0,44.24,81.71,20.26,20.26,0,0,0,24,61.47Z"/><path class="cls-1" d="M93.39,105.71a24,24,0,1,1,24-24A24,24,0,0,1,93.39,105.71Zm0-44.24a20.24,20.24,0,1,0,20.23,20.24A20.26,20.26,0,0,0,93.39,61.47Z"/><path class="cls-1" d="M66.3,16.44a8.22,8.22,0,1,0-8.22-8.22A8.23,8.23,0,0,0,66.3,16.44Z"/><path class="cls-1" d="M85.71,34a5.2,5.2,0,0,0-1.59.28h0c-5.66.15-19.26-4-22.84-8.78h0a4.95,4.95,0,0,0-9.09,2.71C52,33.33,48.33,39.88,41.05,42.77h0a5.5,5.5,0,0,0,1.57,10.77c3.41.64,11.6,7.8,12.67,14.17a5.43,5.43,0,0,0,.87,3h0a5.39,5.39,0,0,0,.55.71c2.09,3.42,1.87,12.92-2.49,19a5.5,5.5,0,1,0,8.21,1.32h0c-1.66-5-1.66-16.2,2.08-20h0a5.49,5.49,0,0,0-3.73-9.53h-.21c-4.39-.87-11.73-8.67-12.47-14.56h0c.49-6.42,4.59-10.71,10.24-14.61v0a5,5,0,0,0,1.15-.45v0c9.3-.05,17,3,21.84,8.74l0,0A4.94,4.94,0,1,0,85.71,34Z"/></g></g></svg>