<?xml version="1.0" encoding="UTF-8" standalone="no"?>
<svg
   xmlns:dc="http://purl.org/dc/elements/1.1/"
   xmlns:cc="http://creativecommons.org/ns#"
   xmlns:rdf="http://www.w3.org/1999/02/22-rdf-syntax-ns#"
   xmlns:svg="http://www.w3.org/2000/svg"
   xmlns="http://www.w3.org/2000/svg"
   xmlns:sodipodi="http://sodipodi.sourceforge.net/DTD/sodipodi-0.dtd"
   xmlns:inkscape="http://www.inkscape.org/namespaces/inkscape"
   inkscape:version="1.0 (1.0+r73+1)"
   inkscape:export-ydpi="1004.5714"
   inkscape:export-xdpi="1004.5714"
   inkscape:export-filename="/data/work/bikedataproject/logo.png"
   sodipodi:docname="logo.svg"
   id="svg22"
   version="1.1"
   viewBox="0 0 49 28">
  <metadata
     id="metadata28">
    <rdf:RDF>
      <cc:Work
         rdf:about="">
        <dc:format>image/svg+xml</dc:format>
        <dc:type
           rdf:resource="http://purl.org/dc/dcmitype/StillImage" />
      </cc:Work>
    </rdf:RDF>
  </metadata>
  <defs
     id="defs26" />
  <sodipodi:namedview
     inkscape:current-layer="svg22"
     inkscape:window-maximized="1"
     inkscape:window-y="27"
     inkscape:window-x="67"
     inkscape:cy="16.214411"
     inkscape:cx="26.671738"
     inkscape:zoom="18.139454"
     showgrid="false"
     id="namedview24"
     inkscape:window-height="1145"
     inkscape:window-width="1853"
     inkscape:pageshadow="2"
     inkscape:pageopacity="0"
     guidetolerance="10"
     gridtolerance="10"
     objecttolerance="10"
     borderopacity="1"
     bordercolor="#666666"
     pagecolor="#ffffff" />
  <g
     id="g20"
     sketch:type="MSPage"
     fill-rule="evenodd"
     fill="none"
     stroke-width="1"
     stroke="none">
    <path
       id="path2"
       sketch:type="MSShapeGroup"
       fill="#888888"
       d="M33.632215,5.40148148 C33.2832947,5.40148148 33,5.11888889 33,4.77083333 L33,2.63064815 C33,2.28259259 33.2832947,2 33.632215,2 C33.981785,2 34.2650797,2.28259259 34.2650797,2.63064815 L34.2650797,4.77083333 C34.2650797,5.11888889 33.981785,5.40148148 33.632215,5.40148148" />
    <path
       id="path4"
       sketch:type="MSShapeGroup"
       fill="#888888"
       d="M18.8974182,5.42012244 C18.6258192,5.42012244 18.3750124,5.24512244 18.2918434,4.97225207 L17.0274134,0.814381695 C16.9260511,0.481233547 17.114481,0.128640955 17.4491067,0.0275298436 C17.7830825,-0.0742294157 18.1359013,0.115029844 18.2379134,0.448177992 L19.5029931,4.60604836 C19.6037057,4.93984466 19.4152757,5.2917891 19.0806501,5.39290021 C19.0195728,5.41169651 18.9578458,5.42012244 18.8974182,5.42012244" />
    <path
       id="path6"
       sketch:type="MSShapeGroup"
       fill="#333333"
       d="M9.88347585,27.717963 C4.43395169,27.717963 0,23.295 0,17.8589815 C0,12.422963 4.43395169,8 9.88347585,8 C15.333,8 19.7669517,12.422963 19.7669517,17.8589815 C19.7669517,23.295 15.333,27.717963 9.88347585,27.717963 L9.88347585,27.717963 Z M9.88347585,9.7662037 C5.40988889,9.7662037 1.77059179,13.3964815 1.77059179,17.8589815 C1.77059179,22.3214815 5.40988889,25.9517593 9.88347585,25.9517593 C14.3570628,25.9517593 17.9963599,22.3214815 17.9963599,17.8589815 C17.9963599,13.3964815 14.3570628,9.7662037 9.88347585,9.7662037 L9.88347585,9.7662037 Z" />
    <path
       id="path8"
       sketch:type="MSShapeGroup"
       fill="#333333"
       d="M38.8834758,27.717963 C33.4339517,27.717963 29,23.295 29,17.8589815 C29,12.422963 33.4339517,8 38.8834758,8 C44.333,8 48.7669517,12.422963 48.7669517,17.8589815 C48.7669517,23.295 44.333,27.717963 38.8834758,27.717963 L38.8834758,27.717963 Z M38.8834758,9.7662037 C34.4098889,9.7662037 30.7705918,13.3964815 30.7705918,17.8589815 C30.7705918,22.3214815 34.4098889,25.9517593 38.8834758,25.9517593 C43.3570628,25.9517593 46.9963599,22.3214815 46.9963599,17.8589815 C46.9963599,13.3964815 43.3570628,9.7662037 38.8834758,9.7662037 L38.8834758,9.7662037 Z" />
    <path
       id="path10"
       sketch:type="MSShapeGroup"
       fill="#888888"
       d="M26.2456842,21.8660533 C26.0838943,21.8660533 25.9221045,21.8044792 25.7986504,21.6813311 L22.1846938,18.0769792 C21.9384354,17.830683 21.9384354,17.4314237 22.1846938,17.1844792 C22.4322518,16.9388311 22.8318533,16.938183 23.0794112,17.1844792 L26.6933678,20.7894792 C26.9396262,21.0351274 26.9396262,21.4343867 26.6933678,21.6813311 C26.5692639,21.8044792 26.407474,21.8660533 26.2456842,21.8660533" />
    <path
       id="path12"
       sketch:type="MSShapeGroup"
       fill="#333333"
       d="M38.7285138,16.8890741 L34.0807916,4.49194444 C34.0781926,4.48546296 34.0736443,4.48092593 34.0710452,4.47444444 C34.0457046,4.41157407 34.0132167,4.3512963 33.9709824,4.29555556 C33.9651346,4.28842593 33.958637,4.28324074 33.9527892,4.27611111 C33.9287481,4.24694444 33.9047071,4.21777778 33.8754679,4.19185185 C33.859224,4.17759259 33.840381,4.16722222 33.8228375,4.15425926 C33.8098423,4.14453704 33.7974969,4.13481481 33.783852,4.12574074 C33.7266732,4.08814815 33.6668955,4.05833333 33.6045187,4.03759259 C33.5973713,4.03564815 33.590224,4.035 33.5830766,4.03305556 C33.5213496,4.01490741 33.458323,4.00583333 33.3952964,4.00388889 C33.3868496,4.00388889 33.3790525,4 33.3699559,4 L18.5041322,4 C18.4833399,4 18.4631974,4.00453704 18.4430549,4.00648148 C18.4242119,4.00777778 18.4060187,4.00907407 18.3878254,4.01166667 C18.3260984,4.02138889 18.2656708,4.03564815 18.2097916,4.05898148 C18.2071926,4.06027778 18.2045935,4.06157407 18.2019945,4.06287037 C18.146765,4.08685185 18.0960839,4.11925926 18.0486515,4.15490741 C18.0350066,4.16527778 18.0220114,4.1762963 18.0090162,4.18796296 C17.9654824,4.22555556 17.9258472,4.26638889 17.8920597,4.31305556 C17.8888109,4.31694444 17.8849124,4.31953704 17.8816636,4.32407407 L17.8758158,4.33314815 C17.875166,4.33314815 17.875166,4.3337963 17.8745162,4.33444444 L9.13656455,16.832037 C8.9747747,17.0634259 8.95528194,17.3648148 9.08588339,17.615 C9.2171346,17.8651852 9.47638822,18.022037 9.75903315,18.022037 L22.1908617,18.022037 L22.1941104,18.0213889 C22.2486902,18.0207407 22.3032699,18.0142593 22.3565501,18.0025926 C22.3753931,17.9980556 22.3922868,17.9902778 22.41048,17.9850926 C22.445567,17.9740741 22.4800042,17.9630556 22.5137916,17.9475 C22.5339341,17.9377778 22.5521274,17.9261111 22.5716201,17.9144444 C22.6002095,17.8975926 22.6287989,17.8807407 22.6554389,17.86 C22.6749317,17.8444444 22.6924752,17.8275926 22.7106684,17.8100926 C22.7256129,17.7958333 22.7425066,17.7841667 22.7568013,17.7686111 L33.0996563,6.19657407 L37.3074921,17.4186111 C37.4218496,17.7232407 37.7109921,17.9105556 38.0183278,17.9105556 C38.106695,17.9105556 38.1963617,17.8956481 38.284079,17.8625926 C38.6765332,17.7161111 38.876009,17.2805556 38.7285138,16.8890741 L38.7285138,16.8890741 Z M22.5332844,15.7437963 L19.5184051,5.51407407 L31.6773351,5.51407407 L22.5332844,15.7437963 L22.5332844,15.7437963 Z M11.2131926,16.507963 L18.222137,6.4837037 L21.1765887,16.507963 L11.2131926,16.507963 L11.2131926,16.507963 Z" />
    <path
       id="path14"
       sketch:type="MSShapeGroup"
       fill="#333333"
       d="M15.8856208,1.7662037 L20.5645314,1.7662037 C21.0537995,1.7662037 21.4495024,1.37083333 21.4495024,0.882777778 C21.4495024,0.39537037 21.0537995,0 20.5645314,0 L15.8856208,0 C15.3963527,0 15,0.39537037 15,0.882777778 C15,1.37083333 15.3963527,1.7662037 15.8856208,1.7662037" />
    <path
       id="path16"
       sketch:type="MSShapeGroup"
       fill="#333333"
       d="M33.632215,3.03851852 L38.1233454,3.03851852 C38.3787005,3.03851852 38.6093647,2.88425926 38.7074783,2.64898148 C38.8055918,2.41305556 38.7510121,2.14212963 38.5703792,1.9612963 L36.7893913,0.184722222 C36.5424831,-0.0615740741 36.1422319,-0.0615740741 35.8953237,0.184722222 C35.6484155,0.431018519 35.6484155,0.830925926 35.8953237,1.07722222 L36.5970628,1.77657407 L33.632215,1.77657407 C33.2832947,1.77657407 33,2.05916667 33,2.40722222 C33,2.75592593 33.2832947,3.03851852 33.632215,3.03851852" />
    <path
       id="path18"
       sketch:type="MSShapeGroup"
       fill="#333333"
       d="M26.9505531,21 L24.6328647,21 C24.2832947,21 24,21.2825926 24,21.6306481 C24,21.9793519 24.2832947,22.2619444 24.6328647,22.2619444 L26.9505531,22.2619444 C27.2994734,22.2619444 27.5827681,21.9793519 27.5827681,21.6306481 C27.5827681,21.2825926 27.2994734,21 26.9505531,21" />
  </g>
</svg>
